<svg width="23" height="21" viewBox="0 0 23 21" fill="none" xmlns="http://www.w3.org/2000/svg">
<path d="M10.9608 20.8951L10.9527 20.8916L10.927 20.8776C10.7768 20.795 10.6279 20.7102 10.4802 20.6232C8.70428 19.568 7.04465 18.3284 5.52883 16.9249C2.84433 14.4201 0 10.7031 0 6.12508C0 2.70908 2.87467 8.27764e-05 6.34433 8.27764e-05C7.30888 -0.00464155 8.26208 0.208147 9.13304 0.622622C10.004 1.0371 10.7703 1.6426 11.375 2.39408C11.9798 1.64244 12.7463 1.03685 13.6175 0.622368C14.4887 0.207886 15.4421 -0.00481723 16.4068 8.27764e-05C19.8753 8.27764e-05 22.75 2.70908 22.75 6.12508C22.75 10.7042 19.9057 14.4212 17.2212 16.9237C15.7054 18.3272 14.0457 19.5669 12.2698 20.6221C12.1221 20.7094 11.9732 20.7946 11.823 20.8776L11.7973 20.8916L11.7892 20.8962L11.7857 20.8974C11.6592 20.9644 11.5182 20.9995 11.375 20.9995C11.2318 20.9995 11.0908 20.9644 10.9643 20.8974L10.9608 20.8951Z" fill="white"/>
</svg>
